<?xml version="1.0" encoding="UTF-8" standalone="no"?>
<svg width="16px" height="21px" viewBox="0 0 16 21" version="1.1" xmlns="http://www.w3.org/2000/svg" xmlns:xlink="http://www.w3.org/1999/xlink">
    <!-- Generator: sketchtool 3.8.3 (29802) - http://www.bohemiancoding.com/sketch -->
    <title>750902AE-83C9-4D71-854A-0B02BD33CDC6</title>
    <desc>Created with sketchtool.</desc>
    <defs></defs>
    <g id="Page-1" stroke="none" stroke-width="1" fill="none" fill-rule="evenodd">
        <g id="Sign-in_message" transform="translate(-475.000000, -311.000000)" fill="#80899C">
            <path d="M489,318 L488,318 L488,316 C488,313.2 485.8,311 483,311 C480.2,311 478,313.2 478,316 L478,318 L477,318 C475.9,318 475,318.9 475,320 L475,330 C475,331.1 475.9,332 477,332 L489,332 C490.1,332 491,331.1 491,330 L491,320 C491,318.9 490.1,318 489,318 L489,318 Z M483,312.9 C484.7,312.9 486.1,314.3 486.1,316 L486.1,318 L480,318 L480,316 L479.9,316 C479.9,314.3 481.3,312.9 483,312.9 L483,312.9 Z M489,330 L477,330 L477,320 L489,320 L489,330 L489,330 Z M483,327 C484.1,327 485,326.1 485,325 C485,323.9 484.1,323 483,323 C481.9,323 481,323.9 481,325 C481,326.1 481.9,327 483,327 L483,327 Z" id="Shape"></path>
        </g>
    </g>
</svg>