<?xml version="1.0" encoding="UTF-8" standalone="no"?>
<svg width="16px" height="16px" viewBox="0 0 16 16" version="1.1" xmlns="http://www.w3.org/2000/svg" xmlns:xlink="http://www.w3.org/1999/xlink">
    <!-- Generator: sketchtool 3.8.3 (29802) - http://www.bohemiancoding.com/sketch -->
    <title>84FF9E67-A8AE-4103-955C-B23E6C41EC94</title>
    <desc>Created with sketchtool.</desc>
    <defs></defs>
    <g id="Page-1" stroke="none" stroke-width="1" fill="none" fill-rule="evenodd">
        <g id="Sign-in_message" transform="translate(-475.000000, -229.000000)" fill="#80899C">
            <path d="M483,230.9 C484.2,230.9 485.1,231.8 485.1,233 C485.1,234.2 484.2,235.1 483,235.1 C481.8,235.1 480.9,234.2 480.9,233 C480.9,231.8 481.8,230.9 483,230.9 L483,230.9 Z M483,239.9 C486,239.9 489.1,241.4 489.1,242 L489.1,243.1 L476.9,243.1 L476.9,242 C476.9,241.4 480,239.9 483,239.9 L483,239.9 Z M483,229 C480.8,229 479,230.8 479,233 C479,235.2 480.8,237 483,237 C485.2,237 487,235.2 487,233 C487,230.8 485.2,229 483,229 L483,229 L483,229 Z M483,238 C480.3,238 475,239.3 475,242 L475,245 L491,245 L491,242 C491,239.3 485.7,238 483,238 L483,238 L483,238 Z" id="Shape"></path>
        </g>
    </g>
</svg>